<svg id="Layer_1" data-name="Layer 1" xmlns="http://www.w3.org/2000/svg" viewBox="0 0 33.17 64"><title>budgetPC</title><path d="M44.68,0H20.32c-2.43,0-4.4,2.38-4.4,5.34V58.61c0,3,2,5.34,4.4,5.34H44.68c2.43,0,4.4-2.38,4.4-5.34V5.29C49.08,2.39,47.11,0,44.68,0Zm1.45,58.66a1.63,1.63,0,0,1-1.45,1.76H20.32a1.6,1.6,0,0,1-1.45-1.76V5.29a1.63,1.63,0,0,1,1.45-1.76H31V23.17a1.64,1.64,0,0,0,1.45,1.76,1.64,1.64,0,0,0,1.45-1.76V3.53H44.68a1.6,1.6,0,0,1,1.45,1.76V58.61Z" transform="translate(-15.92 0.05)"/><path d="M36.18,49H28.87a1.61,1.61,0,0,0-1.45,1.77,1.64,1.64,0,0,0,1.45,1.76h7.31a1.6,1.6,0,0,0,1.45-1.76A1.64,1.64,0,0,0,36.18,49Z" transform="translate(-15.92 0.05)"/></svg>