<svg id="Layer_1" data-name="Layer 1" xmlns="http://www.w3.org/2000/svg" viewBox="0 0 64 63.9"><title>build</title><path d="M63.43,18.64l-2.77-2.15a2.06,2.06,0,0,0-2.5.33c-6,.87-5.5-6.9-8.27-9.06-2.5-1.94-5.07-4.59-8.38-5.89-8.85-3.5-17.46-1.28-24,1l.35,1.41S25.64,4,31.66,8.65c3,2.33.6,5.42-1.17,7.7l0,.06,8,6.2,0-.06c1.64-2.1,3.11-4,4-5.19,2.22-2.78,9.21,4.28,9.5,7.43a2.07,2.07,0,0,0,.3,2.49l2.77,2.15c.82.64,2.23.21,3.14-1l5.07-6.53c.91-1.18,1-2.65.16-3.29" transform="translate(0 -0.05)"/><path d="M1.15,54.2c-1.4,1.79-1.54,4-.32,5l5.6,4.35c1.22.95,3.34.26,4.73-1.53l26-37.56-8.07-6.27Z" transform="translate(0 -0.05)"/></svg>