<svg id="Layer_1" data-name="Layer 1" xmlns="http://www.w3.org/2000/svg" viewBox="0 0 64 64"><title>cpu</title><path d="M24.8,41.2H39.3a2,2,0,0,0,2-2V24.8a2,2,0,0,0-2-2H24.8a2,2,0,0,0-2,2V39.3A2,2,0,0,0,24.8,41.2Zm2-14.4H37.3V37.3H26.8ZM62,34a2,2,0,0,0,0-4H54.8V19.8H62a2,2,0,0,0,0-4H54.8V11.1a2,2,0,0,0-2-2H48.1V2a2,2,0,0,0-4,0V9.2H34V2a2,2,0,0,0-4,0V9.2H19.8V2a2,2,0,0,0-4,0V9.2H11.1a2,2,0,0,0-2,2v4.7H2a2,2,0,0,0,0,4H9.2V30H2a2,2,0,0,0,0,4H9.2V44.2H2a2,2,0,0,0,0,4H9.2v4.7a2,2,0,0,0,2,2h4.7V62a2,2,0,0,0,4,0V54.8H30V62a2,2,0,0,0,4,0V54.8H44.2V62a2,2,0,0,0,4,0V54.8h4.7a2,2,0,0,0,2-2V48.1H62a2,2,0,0,0,0-4H54.8V34ZM50.8,50.8H13.2V13.2H50.9V50.8Z"/></svg>