<svg id="Layer_1" data-name="Layer 1" xmlns="http://www.w3.org/2000/svg" viewBox="0 0 64 62.11"><title>fan</title><path d="M1.69,36.54A1.67,1.67,0,0,1,.05,34.9h0a33.53,33.53,0,0,1,1.51-10,38.32,38.32,0,0,1,3.92-9,1.79,1.79,0,0,1,1.89-.76,31.4,31.4,0,0,1,8.21,3.28,33.89,33.89,0,0,1,7.19,5.43A1.74,1.74,0,0,1,23,26.07c-.12.12-.12.25-.25.38s-.12.25-.25.37a1.45,1.45,0,0,1-1.14.76c-.5.13-1,.13-1.64.25l-1.51.38c-.51.13-.89.26-1.26.38s-.89.38-1.52.51A43.77,43.77,0,0,0,8.76,32,38.49,38.49,0,0,0,2.7,36C2.57,36.42,2.2,36.54,1.69,36.54ZM7.75,18.87a33.88,33.88,0,0,0-4,12.5,32,32,0,0,1,3.54-2.15,52.16,52.16,0,0,1,7.19-3.28c.51-.13,1-.38,1.39-.5s.88-.38,1.51-.51h.13a4.34,4.34,0,0,1,1.26-.25,38.92,38.92,0,0,0-4.67-3.28A38.48,38.48,0,0,0,7.75,18.87Z" transform="translate(-0.05 -0.95)"/><path d="M20.88,61.66c-.25,0-.51-.12-.76-.12A36.43,36.43,0,0,1,4.47,46a1.74,1.74,0,0,1,.25-2,3.06,3.06,0,0,0,.63-.76A3.22,3.22,0,0,0,6,42.48l.13-.13a28.71,28.71,0,0,1,6.56-4.54A30.81,30.81,0,0,1,20.12,35a1.86,1.86,0,0,1,1.89.88c.13.13.13.38.26.51a1,1,0,0,1,.25.5,1.78,1.78,0,0,1,.13,1.39,24.7,24.7,0,0,0-1.39,6.19,37.57,37.57,0,0,0-.13,7.57,46.45,46.45,0,0,0,1.26,7.32,1.61,1.61,0,0,1-1.13,2C21.13,61.66,21,61.66,20.88,61.66Zm-13-16.28A33.77,33.77,0,0,0,18.35,56.49c-.25-1.39-.37-2.78-.5-4.17a44.07,44.07,0,0,1,.13-8.2c.12-1.14.37-2.27.63-3.54a10.16,10.16,0,0,1,.5-1.89,23.4,23.4,0,0,0-4.8,2,26.66,26.66,0,0,0-5.8,4C8.26,45,8.13,45.25,7.88,45.38Z" transform="translate(-0.05 -0.95)"/><path d="M32.62,63.05a1.66,1.66,0,0,1-1.52-1,29.62,29.62,0,0,1-2.27-8.71,28,28,0,0,1,.51-9.21,1.56,1.56,0,0,1,1.76-1.26h1a2,2,0,0,1,1.39.63c.13.25.38.38.51.63s.38.38.5.63a54.62,54.62,0,0,0,5.68,5,33.48,33.48,0,0,0,6.44,3.79l1.89.75,1.9.76a1.75,1.75,0,0,1,1,2.15,1.69,1.69,0,0,1-.76.88,35.1,35.1,0,0,1-8.46,3.53,35,35,0,0,1-9.59,1.39Zm-.51-15.78a21.6,21.6,0,0,0,0,5.68,25,25,0,0,0,1.64,6.69,35.38,35.38,0,0,0,11.87-2.77c-.13-.13-.38-.13-.5-.25a35.19,35.19,0,0,1-6.95-4.17A48.44,48.44,0,0,1,32.11,47.27Z" transform="translate(-0.05 -0.95)"/><path d="M57,48.79H56.6a31.2,31.2,0,0,1-8.2-3.28,34.2,34.2,0,0,1-7.2-5.43A1.74,1.74,0,0,1,41,37.93c.13-.12.13-.25.25-.38s.13-.25.25-.37a1.48,1.48,0,0,1,1.14-.76c.51-.13,1-.13,1.64-.25l1.52-.38c.5-.13.88-.26,1.26-.38s.88-.38,1.51-.51A42.93,42.93,0,0,0,55.21,32a38.49,38.49,0,0,0,6.06-4,1.66,1.66,0,0,1,2.4.25,1.57,1.57,0,0,1,.38,1.14A39.3,39.3,0,0,1,58.5,47.91,2,2,0,0,1,57,48.79ZM45.24,39.32a39.73,39.73,0,0,0,4.67,3.28,29.16,29.16,0,0,0,6.19,2.65,34,34,0,0,0,4-12.49A34.64,34.64,0,0,1,56.6,34.9a52.22,52.22,0,0,1-7.19,3.29,13.58,13.58,0,0,0-1.39.5c-.51.13-.89.38-1.52.51h-.12C46.12,39.07,45.75,39.2,45.24,39.32Z" transform="translate(-0.05 -0.95)"/><path d="M42.72,28.09a1.75,1.75,0,0,1-1.52-.89c-.12-.12-.12-.38-.25-.5a.94.94,0,0,1-.25-.51,1.69,1.69,0,0,1-.13-1.39,26.45,26.45,0,0,0,.88-3A26.63,26.63,0,0,0,42,18.62a38.33,38.33,0,0,0,.13-7.57,47.77,47.77,0,0,0-1.27-7.33A1.63,1.63,0,0,1,42,1.7a1.52,1.52,0,0,1,1.26.13A36.43,36.43,0,0,1,58.87,17.36a1.73,1.73,0,0,1-.25,2,3.49,3.49,0,0,0-.63.75,3.78,3.78,0,0,0-.63.76l-.13.13a28.71,28.71,0,0,1-6.56,4.54,31.23,31.23,0,0,1-7.45,2.78C43,28.09,42.84,28.09,42.72,28.09Zm2-21.46c.25,1.39.38,2.77.5,4.16A45,45,0,0,1,45.12,19c-.13,1.13-.38,2.27-.64,3.53a10.47,10.47,0,0,1-.5,1.9,23.4,23.4,0,0,0,4.8-2,26.66,26.66,0,0,0,5.8-4c.13-.26.38-.38.51-.51A31.64,31.64,0,0,0,44.74,6.63Z" transform="translate(-0.05 -0.95)"/><path d="M32.24,21.14h-1a2,2,0,0,1-1.39-.63c-.13-.25-.38-.38-.5-.63s-.38-.38-.51-.63a54.62,54.62,0,0,0-5.68-5.05,33.48,33.48,0,0,0-6.44-3.79l-1.89-.75L12.93,8.9a1.73,1.73,0,0,1-1-2.15,1.63,1.63,0,0,1,.75-.88,35.26,35.26,0,0,1,8.46-3.53A38.29,38.29,0,0,1,30.47,1a2,2,0,0,1,1.64,1,29.63,29.63,0,0,1,2.28,8.71,28.59,28.59,0,0,1-.51,9.21A1.73,1.73,0,0,1,32.24,21.14ZM17.6,7.13c.12.13.38.13.5.25A34.83,34.83,0,0,1,25,11.55,46,46,0,0,1,31,16.73a21.6,21.6,0,0,0,0-5.68,25,25,0,0,0-1.64-6.69A34,34,0,0,0,17.6,7.13Z" transform="translate(-0.05 -0.95)"/><path d="M32,41.21A9.21,9.21,0,1,1,41.2,32a9.81,9.81,0,0,1-2.65,6.56A9.24,9.24,0,0,1,32,41.21Zm0-15.14a6,6,0,1,0,4.16,1.76A5.93,5.93,0,0,0,32,26.07Z" transform="translate(-0.05 -0.95)"/></svg>