<svg id="Layer_1" data-name="Layer 1" xmlns="http://www.w3.org/2000/svg" viewBox="0 0 64 43.3"><title>gpu</title><path d="M63.15,16H11.45V11.4a1.12,1.12,0,0,0-1.11-1.1H1.1A1.11,1.11,0,0,0,0,11.4v5.7a1.11,1.11,0,0,0,1.1,1.1H3.41V52.5a1.12,1.12,0,0,0,1.11,1.1h5.72a1.12,1.12,0,0,0,1.11-1.1V48h3.41v3.4a1.11,1.11,0,0,0,1.1,1.1H33a1.12,1.12,0,0,0,1.11-1.1V48h4.62v3.4a1.11,1.11,0,0,0,1.1,1.1H49a1.11,1.11,0,0,0,1.1-1.1V48H62.75a1.12,1.12,0,0,0,1.11-1.1V17.1C64.26,16.5,63.76,16,63.15,16ZM62,18.3V30.9H58.43A16.21,16.21,0,0,0,50.7,18.3ZM42.47,45.7A13.7,13.7,0,1,1,56.23,32,13.75,13.75,0,0,1,42.47,45.7ZM34.24,18.3a15.57,15.57,0,0,0-7.73,12.6H11.45V18.3ZM9.14,51.4H5.72V17.1A1.11,1.11,0,0,0,4.62,16H2.31V12.6H9.24V51.4Zm2.31-18.3h15a16.21,16.21,0,0,0,7.73,12.6H11.45ZM32.13,50.3h-15V48h15Zm16.06,0H41.27V48h6.92Zm2.51-4.6a15.57,15.57,0,0,0,7.73-12.6H62V45.7Z" transform="translate(0 -10.3)"/><path d="M42.3,26.3A5.7,5.7,0,0,0,36.6,32a5.76,5.76,0,0,0,5.7,5.7A5.7,5.7,0,0,0,48,32,5.76,5.76,0,0,0,42.3,26.3Zm0,9.1A3.4,3.4,0,1,1,45.7,32,3.37,3.37,0,0,1,42.3,35.4Z" transform="translate(0 -10.3)"/><path d="M39.1,36.1c.2.2.5.2.7.5a16.72,16.72,0,0,0,.5,6.2,13.84,13.84,0,0,1-5-2.5,17,17,0,0,1,3.8-4.2Zm.2-2.3a36.78,36.78,0,0,0-6.6,6.4,12.41,12.41,0,0,0,9.6,4.3,22.38,22.38,0,0,1-.7-9.1,3,3,0,0,1-2.3-1.6Z" transform="translate(0 -10.3)"/><path d="M52.8,34.3a13.84,13.84,0,0,1-2.5,5,36.83,36.83,0,0,1-3.9-4.1c.2-.2.2-.5.5-.7h1.4a15.58,15.58,0,0,0,4.5-.2ZM54.9,32a25.63,25.63,0,0,1-6.6.9,10.55,10.55,0,0,1-2.5-.2A4.22,4.22,0,0,1,44.2,35a36.78,36.78,0,0,0,6.4,6.6A13.49,13.49,0,0,0,54.9,32Z" transform="translate(0 -10.3)"/><path d="M44.3,21.5a13.84,13.84,0,0,1,5,2.5,36.83,36.83,0,0,1-4.1,3.9c-.2-.2-.5-.2-.7-.5a11.47,11.47,0,0,0-.2-5.9Zm-2-2.1h0a22.38,22.38,0,0,1,.7,9.1,4.22,4.22,0,0,1,2.3,1.6,36.78,36.78,0,0,0,6.6-6.4,13.49,13.49,0,0,0-9.6-4.3Z" transform="translate(0 -10.3)"/><path d="M34.3,24.7a36.83,36.83,0,0,1,3.9,4.1c-.2.2-.2.5-.5.7H36.1a19.56,19.56,0,0,0-4.6.5,11.83,11.83,0,0,1,2.8-5.3Zm-.2-2.3A12.41,12.41,0,0,0,29.8,32a25.63,25.63,0,0,1,6.6-.9,10.55,10.55,0,0,1,2.5.2A3.41,3.41,0,0,1,40.5,29a33.68,33.68,0,0,0-6.4-6.6Z" transform="translate(0 -10.3)"/></svg>