<svg id="Layer_1" data-name="Layer 1" xmlns="http://www.w3.org/2000/svg" viewBox="0 0 64 64"><title>Home</title><polygon points="59.1 29.5 59.1 24.6 54.2 24.6 54.2 19.7 49.2 19.7 49.2 14.8 44.3 14.8 44.3 9.8 39.4 9.8 39.4 4.9 34.5 4.9 34.5 0 29.5 0 29.5 4.9 24.6 4.9 24.6 9.8 19.7 9.8 19.7 14.8 14.8 14.8 14.8 19.7 9.8 19.7 9.8 24.6 4.9 24.6 4.9 29.5 0 29.5 0 34.5 0 39.4 0 44.3 0 49.2 0 54.2 0 59.1 0 64 4.9 64 9.8 64 14.8 64 19.7 64 24.6 64 24.6 59.1 24.6 54.2 24.6 49.2 24.6 44.3 24.6 39.4 29.5 39.4 34.5 39.4 39.4 39.4 39.4 44.3 39.4 49.2 39.4 54.2 39.4 59.1 39.4 64 44.3 64 49.2 64 54.2 64 59.1 64 64 64 64 59.1 64 54.2 64 49.2 64 44.3 64 39.4 64 34.5 64 29.5 59.1 29.5"/></svg>