<svg id="Layer_1" data-name="Layer 1" xmlns="http://www.w3.org/2000/svg" viewBox="0 0 47.52 64"><defs><style>.cls-1{fill:#fff;}.cls-2{stroke:#000;stroke-miterlimit:10;stroke-width:0.1px;}</style></defs><title>Logo-Icon</title><path d="M32.67,0H31.33C18.59,0,8.24,11,8.24,24.63V33.7C8.24,50.45,21,64,36.67,64h14a.27.27,0,0,0,.13-.47,12.5,12.5,0,0,1-2.2-1.67,16.08,16.08,0,0,1-5.27-12.14A16,16,0,0,1,53.76,34.44a9.19,9.19,0,0,1,1.8-.47c.13,0,.2-.13.2-.27V24.63C55.76,11,45.41,0,32.67,0ZM43.88,32.63h-23C15.18,32.3,10.64,27,11,20.69c.33-5.54,4.54-10.08,9.67-10.55a10.57,10.57,0,0,1,10.82,7.68.48.48,0,0,0,.93,0,10.63,10.63,0,0,1,10.08-7.68c5.34.07,9.87,4.48,10.41,10.15C53.56,26.43,49.42,31.83,43.88,32.63Z" transform="translate(-8.24 0)"/><path d="M46,49.72a13.35,13.35,0,0,0,7.55,12.21,14.36,14.36,0,0,0,1.46.54.61.61,0,0,0,.74-.61V37.57A.64.64,0,0,0,55,37a10.73,10.73,0,0,0-1.26.47A13.33,13.33,0,0,0,46,49.72Z" transform="translate(-8.24 0)"/><path class="cls-1" d="M42.48,8.41a11.2,11.2,0,0,0-10.15,7.07A11.17,11.17,0,0,0,22.19,8.41C16,8.41,11,13.88,11,20.69c0,6.4,4.54,11.74,10.34,12.21a2.79,2.79,0,0,0,.34.07h4.87a4,4,0,0,1,3,1.33l2.14,2.34a1,1,0,0,0,.66.33.92.92,0,0,0,.67-.33l2.14-2.34a4,4,0,0,1,3-1.33h3.8a15.16,15.16,0,0,0,2.47-.2c5.34-1,9.28-6.14,9.28-12.08C53.69,13.88,48.68,8.41,42.48,8.41Z" transform="translate(-8.24 0)"/><circle class="cls-2" cx="34.69" cy="15.78" r="1.67"/><circle class="cls-2" cx="39.6" cy="20.56" r="1.67"/><circle class="cls-2" cx="30.04" cy="20.57" r="1.67"/><circle class="cls-2" cx="34.89" cy="25.3" r="1.67"/><path d="M27.73,21.76H16.38a.32.32,0,0,1-.33-.34V20a.31.31,0,0,1,.33-.33H27.73a.31.31,0,0,1,.33.33v1.4A.43.43,0,0,1,27.73,21.76Z" transform="translate(-8.24 0)"/><path d="M23,14.75V26.63a.31.31,0,0,1-.33.33H21.32a.31.31,0,0,1-.33-.33V14.75a.31.31,0,0,1,.33-.33h1.34A.31.31,0,0,1,23,14.75Z" transform="translate(-8.24 0)"/></svg>