<svg id="Layer_1" data-name="Layer 1" xmlns="http://www.w3.org/2000/svg" viewBox="0 0 28.99 64"><title>midPC</title><path d="M41.92,0H22.08a4.56,4.56,0,0,0-4.57,4.57V59.38A4.56,4.56,0,0,0,22.08,64H41.92a4.56,4.56,0,0,0,4.57-4.57V4.52A4.58,4.58,0,0,0,41.92,0ZM22.08,1.63H41.92a2.92,2.92,0,0,1,2.9,2.89V20.79l-6.34,9.73a4.82,4.82,0,0,0-.77,2.63V62.32H26.29V33.15a4.82,4.82,0,0,0-.77-2.63l-6.34-9.73V4.52A2.89,2.89,0,0,1,22.08,1.63Zm-2.9,57.79V56.66h1.59a.82.82,0,0,0,0-1.63H19.18v-5.8h1.59a.82.82,0,0,0,0-1.63H19.18V41.85h1.59a.82.82,0,0,0,.81-.82.81.81,0,0,0-.81-.81H19.18v-5.8h1.59a.82.82,0,0,0,0-1.63H19.18v-9l5,7.61a3.28,3.28,0,0,1,.5,1.72V62.32H22.08A2.89,2.89,0,0,1,19.18,59.42Zm22.74,2.9H39.34V33.15a3.18,3.18,0,0,1,.5-1.72l5-7.61v9H43.23a.82.82,0,0,0,0,1.63h1.59v5.75H43.23a.82.82,0,0,0,0,1.63h1.59v5.75H43.23a.82.82,0,0,0-.81.82.81.81,0,0,0,.81.81h1.59v5.76H43.23a.81.81,0,0,0-.81.81.82.82,0,0,0,.81.82h1.59v2.76A2.94,2.94,0,0,1,41.92,62.32Z" transform="translate(-17.51 0.05)"/><path d="M24.39,12H39.65a.82.82,0,1,0,0-1.63H24.39a.81.81,0,0,0-.81.82A.78.78,0,0,0,24.39,12Z" transform="translate(-17.51 0.05)"/><path d="M24.39,17.71H39.65a.82.82,0,1,0,0-1.64H24.39a.82.82,0,0,0-.81.82A.76.76,0,0,0,24.39,17.71Z" transform="translate(-17.51 0.05)"/><path d="M32,43.79a2.72,2.72,0,1,0,2.72,2.72A2.74,2.74,0,0,0,32,43.79Zm0,3.76a1,1,0,1,1,1-1A1,1,0,0,1,32,47.55Z" transform="translate(-17.51 0.05)"/><circle cx="14.49" cy="54.44" r="1.45"/></svg>