<svg id="Layer_1" data-name="Layer 1" xmlns="http://www.w3.org/2000/svg" viewBox="0 0 44 64"><title>ProPC</title><path d="M54,64V0H27.34C26.25.47,28.53-.57,10,7.93V56.07c18.33,8.4,16.15,7.46,17.14,7.93ZM28.43,9.82H52v5.94H28.43Zm0,15.48H52v5.94H28.43Zm0,16.42h5.45l6.35,5,6.34-5H52V62.21H28.43ZM17,19.82c0-.66,1-2.36,2.28-2.36,2.08,0,3.27,3.87,1.48,5.86S16.24,23.13,17,19.82Zm5.05,31.34-5.75-1.32V47.58l5.75-1.42Z" transform="translate(-10 0)"/><path d="M49.44,54.28H31.11v6.13H49.44Z" transform="translate(-10 0)"/><ellipse cx="30.23" cy="50.31" rx="3.27" ry="3.12"/></svg>