<svg id="Layer_1" data-name="Layer 1" xmlns="http://www.w3.org/2000/svg" viewBox="0 0 63.5 63.5"><title>ram</title><path d="M48.16,19a.76.76,0,0,0,.5.2.72.72,0,0,0,.49-.2l5.26-5.25a.77.77,0,0,0,0-1.09L47.27,5.53a.71.71,0,0,0-1,0l-5.36,5.25a.79.79,0,0,0,0,1.09ZM46.77,7.12l6.15,6.14-4.26,4.27-6.15-6.15Z" transform="translate(-0.24 -0.25)"/><path d="M38.94,28.23a.76.76,0,0,0,.5.2.74.74,0,0,0,.49-.2L45.19,23a.77.77,0,0,0,0-1.09l-7.14-7.14a.77.77,0,0,0-1.09,0L31.7,20a.77.77,0,0,0,0,1.09ZM37.55,16.34l6.15,6.14-4.26,4.27L33.29,20.6Z" transform="translate(-0.24 -0.25)"/><path d="M30.71,37.45,36,32.2a.79.79,0,0,0,0-1.09L28.83,24a.77.77,0,0,0-1.09,0l-5.26,5.25a.77.77,0,0,0,0,1.09l7.14,7.14a.76.76,0,0,0,.5.2C30.31,37.65,30.61,37.65,30.71,37.45Zm-6.64-7.63,4.26-4.26,6.15,6.14L30.22,36Z" transform="translate(-0.24 -0.25)"/><path d="M11.87,40.92a.79.79,0,0,0-1.09,0L5.52,46.18a.79.79,0,0,0,0,1.09l7.14,7.14a.75.75,0,0,0,1,0l5.25-5.26a.77.77,0,0,0,0-1.09Zm1.39,12L7.11,46.77l4.26-4.26,6.15,6.15Z" transform="translate(-0.24 -0.25)"/><path d="M62.94,15.15C45.09-2.7,49.45,1.76,48.76,1.07a2.94,2.94,0,0,0-4.07,0L1.06,44.79a2.93,2.93,0,0,0,0,4.06c.2.1,13.49,13.29,14.18,14.08a2.94,2.94,0,0,0,4.07,0l11.2-11.2a.77.77,0,0,0,0-1.09l-5.45-5.45a2.23,2.23,0,0,1,0-3.18,2.42,2.42,0,0,1,3.17,0c.1.1,5.65,5.75,5.46,5.46a.71.71,0,0,0,.49.19.76.76,0,0,0,.5-.19C42.11,40,56.49,25.56,62.84,19.31A3,3,0,0,0,62.94,15.15ZM55.4,24.66l-2.87-3,3.17-3.17,2.87,3Zm-4.26,4.27-2.88-3,3.18-3.17,2.87,3Zm-4.27,4.26-2.87-3L47.17,27l2.88,3Zm-4.16,4.16-2.88-3L43,31.21l2.87,3Zm-4.26,4.27-2.88-3,3.17-3.17,2.88,3Zm-17,17-2.88-3,3.18-3.18,2.87,3Zm-3.27,3.27a1.38,1.38,0,0,1-1.89,0l-2-2,3.17-3.17,2.88,3Zm7.53-7.53-2.87-3,3.17-3.17,2.88,3ZM24,40.92a3.65,3.65,0,0,0,0,5.26l1,1-11.7,11.7L2.15,47.76a1.52,1.52,0,0,1,0-2L45.78,2.06a1.44,1.44,0,0,1,2,0l11.1,11.1C45.88,26.25,34.08,38,30.22,41.91l-1-1A3.66,3.66,0,0,0,24,40.92Zm10.21,5-2.87-3,3.17-3.18,2.87,3ZM61.85,18.22,59.57,20.5l-2.88-3,3.17-3.18,2,2A1.38,1.38,0,0,1,61.85,18.22Z" transform="translate(-0.24 -0.25)"/></svg>