<svg id="Layer_1" data-name="Layer 1" xmlns="http://www.w3.org/2000/svg" viewBox="0 0 63.7 63.8"><title>settings</title><path d="M55.06,24,54,21.37c3.68-8.59,3.48-8.89,2.78-9.59L52,7l-.49-.4h-.6c-.3,0-1.19,0-8.35,3.39L40,8.79C36.57.1,36.17.1,35.18.1H28.52c-1,0-1.39,0-4.57,8.79L21.27,10c-4.87-2.09-7.75-3.19-8.45-3.19h-.6L7.16,11.88c-.8.8-1.1,1.1,2.88,9.49L9,24C.2,27.46.2,27.76.2,28.85v6.69c0,1.1,0,1.4,8.75,4.6L10,42.73c-3.68,8.59-3.48,8.89-2.78,9.59L12,57.11l.49.4h.6c.3,0,1.09,0,8.35-3.39l2.68,1.09c3.38,8.69,3.78,8.69,4.77,8.69h6.66c1,0,1.39,0,4.57-8.69l2.68-1.09c4.87,2.09,7.75,3.19,8.45,3.19h.6L57,52.12c.7-.8,1-1-2.88-9.49L55.25,40c8.65-3.5,8.65-3.8,8.65-4.89V28.46C63.8,27.46,63.8,27.16,55.06,24ZM32,43.23A11.18,11.18,0,1,1,43.13,32.05h0A11.14,11.14,0,0,1,32,43.23Z" transform="translate(-0.2 -0.1)"/></svg>