<svg id="Layer_1" data-name="Layer 1" xmlns="http://www.w3.org/2000/svg" viewBox="0 0 60.06 64"><title>ssd</title><path d="M61.47,42a4.2,4.2,0,0,0,0-1.5L55.55,3.94A4.91,4.91,0,0,0,50.77,0H13.14A4.83,4.83,0,0,0,8.35,3.94L2.53,40.45a4.2,4.2,0,0,0,0,1.5A4.37,4.37,0,0,0,2,44.11v15A4.85,4.85,0,0,0,6.85,64h50.3A4.85,4.85,0,0,0,62,59.12v-15A4.37,4.37,0,0,0,61.47,42ZM12.86,4.69a.34.34,0,0,1,.28-.09H50.77c.09,0,.19.09.28.09l5.54,34.63H7.32ZM57.52,59.12a.29.29,0,0,1-.28.28H6.85a.24.24,0,0,1-.28-.28h0v-15h0l.09-.1c.19-.19.38-.28.57-.19H56.87a1,1,0,0,1,.56.19l.09.1h0Z" transform="translate(-1.97 0)"/><path d="M36.13,49.36H13.51a2.26,2.26,0,0,0,0,4.51H36.22a2.26,2.26,0,1,0-.09-4.51Z" transform="translate(-1.97 0)"/><path d="M50.49,49.36h-6a2.26,2.26,0,0,0,0,4.51h6a2.29,2.29,0,0,0,2.25-2.26A2.22,2.22,0,0,0,50.49,49.36Z" transform="translate(-1.97 0)"/><path d="M19.14,7h-1.5a2.25,2.25,0,0,0,0,4.5h1.5a2.25,2.25,0,1,0,0-4.5Z" transform="translate(-1.97 0)"/></svg>